# xmcd
#
# Track frame offsets:
#  150
#  13890
#  25373
#  36502
#  50201
#  60534
#  69613
#  84307
#  94452
#  106374
#  120686
#  132065
#
# Disc length: 1911 seconds
#
# Revision: 0
# Processed by: cddbd v1.5.1PL2 Copyright (c) Steve Scherf et al.
# Submitted via: Collectorz.com Music Collector 6.9
#
DISCID=ac07750c
DTITLE=Merle Haggard snd the Strangers - Merle Haggard Branded Man
DYEAR=1900
DGENRE=
TTITLE0=01 - Branded Man
TTITLE1=02 - Loneliness Is Eating Me Alive
TTITLE2=03 - Don't Get Married
TTITLE3=04 - Somewhere Between
TTITLE4=05 - You Don't Have Very Far To Go
TTITLE5=06 - Gone Crazy
TTITLE6=07 - I Threw Away The Rose
TTITLE7=08 - My Hands Are Tied
TTITLE8=09 - Some Of Us Never Learn
TTITLE9=10 - Long Black Limousine
TTITLE10=11 - Go Home
TTITLE11=12 - I Made The Prison Band
EXTD=
EXTT0=
EXTT1=
EXTT2=
EXTT3=
EXTT4=
EXTT5=
EXTT6=
EXTT7=
EXTT8=
EXTT9=
EXTT10=
EXTT11=
PLAYORDER=
